<?xml version="1.0" encoding="UTF-8" standalone="no"?>
<!-- Created with Inkscape (http://www.inkscape.org/) -->

<svg
   width="200mm"
   height="200mm"
   viewBox="0 0 200 200"
   version="1.1"
   id="svg1"
   inkscape:version="1.4 (e7c3feb1, 2024-10-09)"
   sodipodi:docname="albishara-draft-200.svg"
   xmlns:inkscape="http://www.inkscape.org/namespaces/inkscape"
   xmlns:sodipodi="http://sodipodi.sourceforge.net/DTD/sodipodi-0.dtd"
   xmlns="http://www.w3.org/2000/svg"
   xmlns:svg="http://www.w3.org/2000/svg">
  <sodipodi:namedview
     id="namedview1"
     pagecolor="#ffffff"
     bordercolor="#000000"
     borderopacity="0.25"
     inkscape:showpageshadow="2"
     inkscape:pageopacity="0.0"
     inkscape:pagecheckerboard="0"
     inkscape:deskcolor="#d1d1d1"
     inkscape:document-units="mm"
     inkscape:zoom="0.8848906"
     inkscape:cx="365.58191"
     inkscape:cy="351.45587"
     inkscape:window-width="1800"
     inkscape:window-height="1097"
     inkscape:window-x="0"
     inkscape:window-y="44"
     inkscape:window-maximized="1"
     inkscape:current-layer="layer1" />
  <defs
     id="defs1" />
  <g
     inkscape:label="Layer 1"
     inkscape:groupmode="layer"
     id="layer1">
    <circle
       style="fill:none;fill-opacity:1;stroke:#000000;stroke-width:1.93709;stroke-dasharray:none;stroke-opacity:1"
       id="path1"
       cx="100"
       cy="100"
       r="98.439148" />
    <path
       d="m 107.91115,23.220436 c 2.90794,2.308126 4.67249,5.33863 5.12894,9.019403 0.33451,4.718759 -0.43105,8.659462 -3.53356,12.359708 -0.55882,0.563611 -0.55882,0.563611 -1.16423,0.895628 -0.76291,0.429724 -1.33754,0.83943 -1.76387,1.606486 -0.46979,1.849141 -0.36183,3.827195 -0.36346,5.72125 -0.009,0.530781 -0.0188,1.061547 -0.0299,1.592279 -0.0246,1.295618 -0.0361,2.59084 -0.0375,3.886675 2.82156,-0.0031 5.64305,-0.01216 8.46457,-0.0284 1.3101,-0.0073 2.62014,-0.01279 3.93027,-0.01368 1.26393,-7.75e-4 2.52775,-0.0073 3.79164,-0.01678 0.48262,-0.0023 0.96526,-0.0041 1.44789,-0.0023 0.67517,7.75e-4 1.34998,-0.0049 2.02511,-0.0117 0.20032,0.0015 0.40064,0.0041 0.60703,0.0057 1.12947,-0.0023 1.12947,-0.0023 2.00486,-0.668292 0.11367,-0.183589 0.22733,-0.367167 0.34444,-0.556308 0.50443,-0.30219 0.97887,-0.560989 1.50773,-0.807708 0.13271,-0.06529 0.26542,-0.130498 0.40216,-0.197723 1.82875,-0.882979 3.6162,-1.020586 5.56141,-0.367675 2.02319,0.82427 3.4674,2.112314 4.43061,4.080606 0.79272,1.945774 0.92945,4.135614 0.15986,6.123428 -1.16705,1.94978 -2.93718,3.718303 -5.16933,4.307779 -1.98214,0.215931 -4.11433,0.28739 -5.8155,-0.861551 -0.22393,-0.220631 -0.44589,-0.443272 -0.66596,-0.667738 -0.96016,-0.829388 -1.84197,-0.806914 -3.06921,-0.79108 -0.2187,-0.0023 -0.43741,-0.0049 -0.66275,-0.0073 -0.71915,-0.0057 -1.43795,-0.0031 -2.15713,9.7e-5 -0.50007,-0.0023 -1.00013,-0.0057 -1.5002,-0.0089 -1.31336,-0.0081 -2.6266,-0.0081 -3.93998,-0.0065 -1.34131,1.94e-4 -2.68258,-0.0065 -4.02388,-0.01333 -2.62969,-0.01162 -5.25932,-0.01515 -7.88903,-0.01344 0.0132,4.697146 0.0301,9.394276 0.0508,14.091387 0.01,2.182793 0.0181,4.365582 0.0239,6.548383 0.028,10.270363 0.15681,20.50908 0.74572,30.76419 0.0394,0.68799 0.0776,1.37603 0.11534,2.0641 0.13178,2.3945 0.27661,4.78789 0.4318,7.18098 0.0334,0.52095 0.0657,1.04196 0.0977,1.563 0.21028,3.42713 0.43458,6.85145 0.78972,10.26709 0.035,0.35661 0.035,0.35661 0.0707,0.72041 0.15684,1.52285 0.15684,1.52285 0.90534,2.83267 0.48458,0.38201 0.95057,0.71899 1.46733,1.05001 0.14341,0.093 0.28681,0.1861 0.43457,0.28196 4.15724,2.64991 8.64059,4.05606 13.57748,2.99347 5.10128,-1.30495 9.67986,-5.2538 12.95192,-9.27939 0.20682,-0.24497 0.41381,-0.48979 0.62092,-0.7345 2.67313,-3.18889 4.85449,-6.64429 6.91768,-10.25032 -0.49435,-0.24717 -0.78085,-0.24215 -1.33019,-0.24568 -0.17838,-0.004 -0.35678,-0.008 -0.54058,-0.0126 -0.37463,-0.007 -0.74935,-0.0112 -1.12405,-0.0118 -1.53284,-0.0451 -1.53284,-0.0451 -2.19722,-0.70927 -0.13465,-0.17436 -0.26932,-0.34873 -0.40806,-0.52837 0.28457,-1.08791 0.78294,-1.80233 1.52118,-2.62505 0.21613,-0.24777 0.43208,-0.49569 0.64785,-0.74376 0.10724,-0.12231 0.21449,-0.24461 0.32498,-0.37063 0.43237,-0.49864 0.84716,-1.01072 1.26183,-1.52412 1.05403,-1.29411 2.14156,-2.55819 3.23104,-3.82242 0.33689,-0.39177 0.67252,-0.78459 1.00774,-1.1778 0.96174,-1.12735 1.92546,-2.24995 2.9229,-3.34609 0.66817,-0.73463 1.30199,-1.4883 1.92503,-2.26159 0.65817,-0.81357 1.336,-1.56563 2.0891,-2.29103 0.39047,-0.39046 0.74449,-0.8012 1.10134,-1.22249 1.97997,-2.27296 1.97997,-2.27296 3.20391,-2.5039 0.67095,0.15604 0.82938,0.22478 1.22502,0.78079 0.11288,0.59352 0.18636,1.14816 0.23558,1.74751 0.0167,0.1795 0.0335,0.35901 0.0506,0.54395 0.19258,2.16431 0.31152,4.33429 0.42861,6.50374 0.0398,0.73687 0.0808,1.47366 0.1222,2.21044 0.055,0.97825 0.10956,1.95651 0.16396,2.93478 0.0924,1.65357 0.18945,3.30682 0.29169,4.95981 0.0257,0.4171 0.0507,0.83424 0.0758,1.25139 0.0909,1.47377 0.0909,1.47377 0.2562,2.9404 0.11883,0.98527 0.13806,1.95174 0.13882,2.94308 0.002,0.1838 0.005,0.36761 0.008,0.55699 7.7e-4,0.2632 7.7e-4,0.2632 0.002,0.53174 7.7e-4,0.15822 0.002,0.31645 0.002,0.47947 -0.0523,0.39722 -0.0523,0.39722 -0.4831,0.828 -2.06143,0.40332 -3.9161,-1.38379 -5.54626,-2.4635 -0.37744,-0.25502 -0.75456,-0.51051 -1.13079,-0.76733 -0.0558,0.26071 -0.0558,0.26071 -0.11274,0.5267 -2.4379,10.53441 -7.45939,20.11293 -14.96446,27.90461 -0.12557,0.13143 -0.25114,0.26286 -0.38051,0.39827 -1.72453,1.79749 -3.49373,3.45051 -5.49893,4.9307 -0.3583,0.26482 -0.71259,0.53437 -1.06684,0.80455 -6.43749,4.831 -14.45164,8.28013 -22.339,9.79935 -3.13307,0.60353 -5.41606,1.72899 -7.97023,3.63047 -1.06829,0.76543 -1.68451,1.03235 -3.022173,0.89858 -1.143673,-0.41923 -1.991843,-1.06176 -2.869367,-1.88917 -1.939685,-1.79756 -3.633165,-2.17864 -6.190316,-2.53071 -6.889093,-1.12434 -13.954582,-4.09165 -19.802405,-7.85728 -0.143023,-0.0921 -0.286042,-0.18415 -0.433408,-0.27901 -8.080976,-5.26444 -14.405175,-12.34737 -18.951569,-20.82907 -0.07156,-0.13102 -0.143058,-0.26204 -0.216753,-0.39702 -1.501239,-2.76583 -2.56875,-5.70365 -3.660245,-8.64931 -0.11774,-0.31301 -0.235519,-0.626 -0.353371,-0.93896 -1.369739,-3.71314 -1.369739,-3.71314 -1.369739,-5.5227 -0.141291,0.0902 -0.282571,0.18044 -0.428143,0.27339 -0.637938,0.40717 -1.276065,0.81403 -1.914208,1.22087 -0.222393,0.14202 -0.444798,0.28403 -0.673932,0.43036 -0.212398,0.13535 -0.424808,0.2707 -0.643641,0.41016 -0.196262,0.1252 -0.392524,0.25041 -0.594733,0.3794 -0.856363,0.53315 -1.404416,0.57119 -2.422393,0.51665 -0.574518,-0.57451 -0.492972,-1.01017 -0.501505,-1.79289 0.0016,-0.3053 0.0016,-0.3053 0.0032,-0.61677 3.87e-4,-0.21617 7.75e-4,-0.43234 0.0016,-0.65505 0.0416,-3.483 0.314793,-6.96251 0.549773,-10.43662 0.01953,-0.29259 0.01953,-0.29259 0.03948,-0.59108 0.07237,-1.04256 0.169619,-2.07825 0.289793,-3.11632 0.07343,-0.68584 0.111494,-1.37232 0.148625,-2.06098 0.01662,-0.29795 0.03332,-0.5959 0.04998,-0.89384 0.0084,-0.15235 0.01685,-0.30468 0.02545,-0.46163 0.246338,-4.39713 0.246338,-4.39713 0.457077,-6.48687 0.01344,-0.15186 0.02685,-0.30371 0.04078,-0.46017 0.06244,-0.5621 0.152728,-1.01156 0.431254,-1.50693 0.695884,-0.369 1.170579,-0.2061 1.910733,0.002 0.490726,0.3912 0.87556,0.74149 1.292332,1.19809 0.112119,0.11755 0.224242,0.2351 0.339758,0.35621 0.717656,0.7578 1.417631,1.53227 2.094303,2.3269 0.426368,0.49694 0.867079,0.97936 1.308321,1.46312 0.669919,0.74122 1.311665,1.49712 1.938495,2.27504 0.698836,0.86442 1.424252,1.69063 2.180817,2.50391 0.906829,0.97568 1.761097,1.9822 2.596443,3.01964 0.62793,0.76535 1.275879,1.51149 1.926721,2.25738 1.139132,1.30797 2.259971,2.62585 3.338518,3.98469 0.177004,0.21906 0.177004,0.21906 0.357579,0.44256 0.413127,0.53625 0.699716,0.98068 0.853985,1.64401 -0.207353,0.76719 -0.532719,0.94795 -1.211564,1.35964 -0.775118,0.13516 -1.543336,0.14994 -2.328892,0.16154 -0.316314,0.01 -0.316314,0.01 -0.639018,0.0194 -0.518427,0.0151 -1.036664,0.0265 -1.55525,0.0345 3.987614,7.55326 10.645198,17.00477 19.006366,20.069 3.16074,0.94465 6.939066,1.05441 10.071106,-0.0378 0.344008,-0.11369 0.344008,-0.11369 0.694962,-0.22969 1.649152,-0.58512 3.036177,-1.3686 4.474369,-2.35497 0.302356,-0.18367 0.302356,-0.18367 0.610826,-0.37104 0.290695,-0.18283 0.290695,-0.18283 0.587267,-0.36935 0.173536,-0.10635 0.34706,-0.21269 0.525854,-0.32225 1.151312,-1.19186 1.004725,-3.46604 1.123217,-5.02462 0.02216,-0.27728 0.04429,-0.55456 0.06708,-0.84024 0.05934,-0.74521 0.116706,-1.49056 0.173528,-2.23596 0.03549,-0.46332 0.07147,-0.92658 0.107668,-1.38985 0.337177,-4.31918 0.626423,-8.63805 0.832723,-12.96557 0.05747,-1.17846 0.136441,-2.35472 0.221557,-3.53145 0.736024,-10.34543 0.790266,-20.687421 0.83115,-31.053794 0.0084,-2.101455 0.01895,-4.202905 0.02972,-6.304356 0.022,-4.305335 0.04127,-8.610681 0.05869,-12.91605 -3.147405,-0.0023 -6.294721,0.0031 -9.442091,0.01724 -1.461479,0.0065 -2.922885,0.01023 -4.38438,0.0086 -1.410576,-0.0016 -2.821021,0.0031 -4.231562,0.01255 -0.538003,0.0023 -1.07601,0.0023 -1.614013,3.87e-4 -0.753989,-0.0023 -1.50752,0.0023 -2.261478,0.01 -0.333249,-0.0041 -0.333249,-0.0041 -0.673227,-0.0081 -1.308531,0.0227 -2.019423,0.213328 -2.947568,1.15922 -0.09647,0.101495 -0.192934,0.202995 -0.292322,0.307567 -1.741714,1.136831 -4.027688,1.158677 -6.030889,0.861563 -1.969318,-0.60777 -3.513263,-1.802965 -4.59047,-3.553919 -0.9608,-1.99278 -1.231675,-4.32856 -0.557824,-6.453244 1.148287,-2.431295 2.695165,-3.608196 5.148294,-4.63927 2.3172,-0.720624 4.441837,0.131451 6.518873,1.134999 0.588956,0.372715 0.588956,0.372715 0.915735,0.92561 0.8321,0.815414 1.664579,0.675727 2.787734,0.666084 0.229115,0.0023 0.45823,0.0049 0.694288,0.0065 0.757576,0.0065 1.514954,0.0049 2.272565,0.0031 0.525137,0.0023 1.050278,0.0065 1.575411,0.0098 1.382396,0.0086 2.764733,0.01077 4.147152,0.01162 1.41055,0.0015 2.82106,0.01007 4.231594,0.01755 2.767797,0.01391 5.535568,0.02131 8.3034,0.02402 -0.02541,-1.48336 -0.05227,-2.966697 -0.08019,-4.450019 -0.0093,-0.504527 -0.01832,-1.009072 -0.02693,-1.513603 -0.01248,-0.725544 -0.02623,-1.451042 -0.04013,-2.176555 -0.0057,-0.337941 -0.0057,-0.337941 -0.01092,-0.682715 -0.0041,-0.211228 -0.0086,-0.422445 -0.01302,-0.640061 -0.0031,-0.185104 -0.0065,-0.370197 -0.01015,-0.560911 -0.0358,-0.55675 -0.105576,-1.067828 -0.249462,-1.607121 -0.393644,-0.255781 -0.393644,-0.255781 -0.861559,-0.430782 -2.615981,-1.995728 -4.749889,-4.710387 -5.280675,-8.016699 -0.168685,-1.319897 -0.170491,-2.635153 -0.184837,-3.964337 -0.01205,-0.416892 -0.01205,-0.416892 -0.02441,-0.84221 -0.03231,-3.563654 1.486789,-6.510317 3.892975,-9.077455 4.764552,-4.579508 11.802751,-4.910915 17.145281,-1.119009 z M 90.441108,26.69442 c -2.41904,3.196599 -2.545966,6.978455 -2.108556,10.831485 0.321824,2.001786 1.075495,3.660092 2.307112,5.267977 0.101902,0.138269 0.203805,0.276539 0.308783,0.419 0.755027,0.953935 1.66757,1.6489 2.648613,2.361702 0.959075,0.883146 1.174313,1.744585 1.228125,3.016175 0.0089,0.512658 0.01441,1.02539 0.01708,1.538115 0.0057,0.406013 0.0057,0.406013 0.0117,0.820229 0.0097,0.715979 0.01662,1.431876 0.02232,2.147898 0.0065,0.732084 0.01646,1.46411 0.02615,2.196151 0.01833,1.433663 0.03297,2.867317 0.04502,4.301042 -3.291524,0.0073 -6.582971,0.0057 -9.874488,-0.0065 -1.528382,-0.0049 -3.056664,-0.0073 -4.58505,-0.0031 -1.474829,0.0041 -2.949473,2.17e-4 -4.424287,-0.0084 -0.562821,-0.0016 -1.12567,-0.0016 -1.688483,0.0015 -0.788124,0.0041 -1.575659,-7.75e-4 -2.36374,-0.0084 -0.349517,0.0049 -0.349517,0.0049 -0.706096,0.01031 -1.557501,-0.02809 -1.557501,-0.02809 -2.186164,-0.531642 -0.339904,-0.403438 -0.339904,-0.403438 -0.608118,-0.804275 -0.611879,-0.839942 -1.638637,-1.265714 -2.641046,-1.45 -2.159241,-0.142551 -3.903102,-0.198324 -5.623655,1.241844 -1.530873,1.41913 -2.169036,2.550805 -2.251486,4.654421 0.05071,1.81814 0.546802,3.024954 1.709648,4.402007 1.844449,1.537037 3.130292,1.889359 5.5757,1.838375 1.394448,-0.129681 2.313248,-0.691177 3.258443,-1.702721 0.978408,-0.808831 2.103008,-0.677516 3.316703,-0.668078 0.254386,-0.0023 0.508768,-0.0049 0.770864,-0.0065 0.694632,-0.0049 1.389075,-0.0057 2.083719,-0.0041 0.727016,7.74e-4 1.453978,-0.0049 2.180964,-0.0095 1.375341,-0.0081 2.750612,-0.01069 4.125976,-0.01131 1.566337,-7.75e-4 3.132636,-0.0081 4.698958,-0.01569 3.220802,-0.01546 6.44158,-0.02336 9.66242,-0.02623 -0.01325,4.732668 -0.03002,9.465313 -0.0508,14.197958 -0.0095,2.199215 -0.01809,4.398435 -0.02387,6.59767 -0.02755,10.170417 -0.144185,20.307877 -0.74846,30.462337 -0.04616,0.78068 -0.08987,1.56149 -0.133361,2.34232 -0.10119,1.81064 -0.215257,3.62023 -0.335895,5.42967 -0.03661,0.56147 -0.07318,1.12293 -0.109694,1.68441 -0.210015,3.2043 -0.430293,6.40789 -0.671092,9.61003 -0.01213,0.16432 -0.02425,0.32864 -0.0368,0.49794 -0.459958,6.16439 -0.459958,6.16439 -1.120908,7.04067 -4.692036,3.91003 -9.838005,5.75749 -15.951062,5.23948 -4.562084,-0.52023 -8.434351,-3.54015 -11.618689,-6.63951 -0.123691,-0.11928 -0.247378,-0.23857 -0.374823,-0.36146 -1.642802,-1.58909 -3.184833,-3.20756 -4.579111,-5.02326 -0.0959,-0.1225 -0.191787,-0.24502 -0.290586,-0.37124 -2.598605,-3.32362 -4.785404,-6.80601 -6.601854,-10.61358 1.990188,-0.14215 3.980384,-0.28431 6.030881,-0.43078 -0.250341,-1.00139 -0.731929,-1.52802 -1.400027,-2.27504 -0.238324,-0.27184 -0.47643,-0.54389 -0.714309,-0.81612 -0.117484,-0.1339 -0.234969,-0.26779 -0.35601,-0.40574 -0.440377,-0.50767 -0.863678,-1.02812 -1.285494,-1.55127 -1.10726,-1.36262 -2.261323,-2.68328 -3.415084,-4.00646 -0.368105,-0.42295 -0.734935,-0.84697 -1.101347,-1.2714 -1.18014,-1.36667 -2.366631,-2.72559 -3.579151,-4.06377 -0.397642,-0.44086 -0.78972,-0.88584 -1.179594,-1.33357 -1.35528,-1.55293 -2.720711,-3.0866 -4.20007,-4.52316 -0.360902,0.63846 -0.497533,1.14152 -0.551469,1.87087 -0.01577,0.20299 -0.0315,0.40598 -0.04778,0.61511 -0.01522,0.22192 -0.03045,0.44385 -0.04608,0.67249 -0.0174,0.23544 -0.03495,0.47089 -0.05292,0.71346 -0.219628,3.03018 -0.399064,6.06326 -0.579763,9.09597 -0.07416,1.24434 -0.14887,2.48864 -0.224218,3.73291 -0.02572,0.42693 -0.05096,0.85389 -0.0762,1.28085 -0.08297,1.37608 -0.180145,2.74784 -0.317764,4.1196 -0.07131,0.86692 -0.06529,1.73193 -0.05577,2.60113 7.75e-4,0.17422 0.0016,0.34845 0.0031,0.52796 0.0023,0.42082 0.0065,0.84164 0.01054,1.26246 1.453812,-0.6773 2.744045,-1.51764 4.065465,-2.42312 0.402678,-0.27575 0.805941,-0.55065 1.209874,-0.82454 0.176275,-0.12085 0.352546,-0.24169 0.534156,-0.3662 0.436771,-0.26314 0.436771,-0.26314 0.867556,-0.26314 0.02662,0.16826 0.05332,0.33651 0.08075,0.50987 1.936961,10.87118 7.363955,21.08067 14.996433,28.99838 0.115051,0.11977 0.230103,0.23954 0.348637,0.36295 1.520394,1.5746 3.075783,3.04772 4.820693,4.3756 0.134489,0.10318 0.268973,0.20637 0.407537,0.31268 7.00509,5.33903 15.442653,9.20946 24.151816,10.68392 2.781012,0.48695 4.500686,1.20309 6.564414,3.13755 0.823433,0.75694 1.316433,1.15248 2.458356,1.17528 1.00866,-0.19072 1.68818,-0.72438 2.46856,-1.36301 2.24167,-1.80013 4.49881,-2.55921 7.26937,-3.17699 9.56634,-2.16554 18.45991,-6.13357 25.81971,-12.70793 0.17482,-0.15487 0.17482,-0.15487 0.35317,-0.31287 9.02182,-8.02441 16.14956,-20.15079 17.73948,-32.21081 0.164,0.10865 0.32801,0.21733 0.49698,0.32929 0.61166,0.40459 1.22387,0.80831 1.83648,1.21145 0.26449,0.1743 0.52875,0.34895 0.79278,0.52396 0.38062,0.2522 0.76206,0.50314 1.14367,0.75386 0.22898,0.15115 0.45795,0.30228 0.69387,0.45801 0.56345,0.34094 1.0948,0.59481 1.71328,0.81581 0.037,-1.83448 -0.0908,-3.64812 -0.22698,-5.47584 -0.23844,-3.20718 -0.4522,-6.41564 -0.64637,-9.62576 -0.0144,-0.23687 -0.0144,-0.23687 -0.029,-0.47851 -0.0963,-1.58945 -0.19173,-3.17896 -0.28538,-4.76859 -0.0355,-0.59967 -0.0716,-1.1993 -0.10773,-1.79893 -0.0249,-0.41606 -0.0489,-0.83217 -0.073,-1.24827 -0.0151,-0.25064 -0.0304,-0.50128 -0.046,-0.7595 -0.0129,-0.21838 -0.0257,-0.43677 -0.039,-0.66178 -0.0519,-0.57183 -0.14552,-1.11548 -0.26965,-1.67563 -1.81176,1.50338 -3.42991,3.16203 -4.95394,4.95394 -0.41693,0.48944 -0.8343,0.97849 -1.25194,1.46734 -0.11138,0.13049 -0.22275,0.26098 -0.33749,0.39544 -0.69033,0.80592 -1.39409,1.59655 -2.11256,2.37768 -0.85208,0.92918 -1.65322,1.88836 -2.445,2.86905 -0.60749,0.73863 -1.23354,1.45904 -1.86277,2.17912 -1.06048,1.21722 -2.10549,2.44633 -3.13659,3.68853 -0.13111,0.15664 -0.26222,0.31327 -0.39729,0.47464 -0.121,0.14657 -0.242,0.29313 -0.36668,0.44414 -0.10738,0.12945 -0.21476,0.2589 -0.3254,0.39228 -0.29974,0.38078 -0.29974,0.38078 -0.47221,1.00437 0.25238,0.0106 0.50477,0.0211 0.7648,0.032 0.34188,0.0162 0.68375,0.0325 1.02563,0.0488 0.16506,0.007 0.33012,0.0133 0.50018,0.0202 1.34383,0.0669 2.63744,0.28003 3.95566,0.5452 -2.23746,3.90321 -4.50014,7.69172 -7.32321,11.20021 -0.089,0.11145 -0.17791,0.22289 -0.26955,0.33771 -3.59279,4.47254 -8.23888,9.29735 -13.9461,10.86251 -0.17437,0.048 -0.34873,0.0961 -0.52838,0.14556 -4.96976,1.12047 -9.91139,-0.002 -14.16685,-2.63768 -1.9424,-1.24756 -3.48895,-2.2468 -4.04359,-4.61571 -0.15976,-1.18017 -0.2455,-2.36292 -0.32897,-3.55055 -0.0265,-0.35273 -0.0532,-0.70545 -0.08,-1.05816 -0.29106,-3.89079 -0.52648,-7.78551 -0.75569,-11.68036 -0.0444,-0.75086 -0.0899,-1.50167 -0.13531,-2.25246 -0.0457,-0.7564 -0.0908,-1.51282 -0.13586,-2.26925 -0.0206,-0.34499 -0.0413,-0.68998 -0.062,-1.03495 -0.0653,-1.08558 -0.12605,-2.17137 -0.18457,-3.25733 -0.03,-0.54845 -0.0608,-1.09682 -0.0924,-1.64517 -0.32616,-5.69827 -0.4509,-11.38143 -0.46622,-17.088465 -0.003,-1.123364 -0.009,-2.246713 -0.0146,-3.370069 -0.01,-2.111183 -0.0179,-4.222377 -0.0252,-6.333575 -0.008,-2.410331 -0.019,-4.820655 -0.0297,-7.230978 -0.0221,-4.943357 -0.0414,-9.886726 -0.0587,-14.830099 3.15484,0.0031 6.30961,0.01205 9.46441,0.0284 1.46486,0.0073 2.92968,0.01294 4.39456,0.01368 1.41335,7.75e-4 2.82661,0.0073 4.23994,0.01678 0.53954,0.0023 1.07912,0.0041 1.61868,0.0023 0.75507,-7.75e-4 1.50981,0.0049 2.26483,0.0117 0.22372,-0.0015 0.44743,-0.0041 0.67793,-0.0057 1.52505,0.02433 1.52505,0.02433 2.32226,0.664724 0.21446,0.277139 0.21446,0.277139 0.43325,0.55988 1.72426,1.241469 3.53202,1.342728 5.60011,1.076948 1.6832,-0.575219 3.08321,-1.924649 3.91234,-3.488286 0.25035,-0.839999 0.25937,-1.630033 0.26081,-2.502219 0.005,-0.165613 0.0106,-0.331234 0.016,-0.501869 0.007,-1.464853 -0.43423,-2.506337 -1.31168,-3.66792 -1.60781,-1.576589 -2.9011,-2.039568 -5.1678,-2.018009 -1.34171,0.05779 -2.46464,0.327163 -3.52515,1.19348 -0.0815,0.11896 -0.16292,0.237917 -0.24685,0.360484 -0.44056,0.629926 -0.78492,1.073139 -1.54137,1.288253 -0.61287,0.05316 -1.21061,0.05959 -1.82575,0.0499 -0.34691,0.0031 -0.34691,0.0031 -0.70084,0.0073 -0.76232,0.0057 -1.52419,0.0015 -2.28652,-0.0031 -0.52935,0.0016 -1.0587,0.0049 -1.58804,0.0081 -1.39164,0.0073 -2.78312,0.0049 -4.17476,7.75e-4 -1.42069,-0.0023 -2.84134,0.0041 -4.26202,0.009 -2.78634,0.0093 -5.57259,0.0094 -8.35893,0.0031 0.0255,-1.494317 0.0523,-2.988606 0.0802,-4.482884 0.009,-0.507622 0.0183,-1.015236 0.0269,-1.522866 0.0126,-0.732533 0.0262,-1.465032 0.0401,-2.197534 0.003,-0.224447 0.007,-0.448901 0.0109,-0.680154 0.0736,-3.689531 0.0736,-3.689531 0.60918,-4.632203 0.4331,-0.399788 0.85698,-0.732987 1.33271,-1.07694 1.67154,-1.217077 2.79977,-2.742155 3.71546,-4.577012 0.17992,-0.319856 0.17992,-0.319856 0.36346,-0.646166 1.282,-2.930357 1.18673,-7.045265 0.15414,-10.036768 -1.24867,-3.178469 -3.64739,-5.614257 -6.76387,-6.979048 -5.207818,-1.946501 -10.440472,-0.137773 -13.983439,3.931685 z"
       fill="#090905"
       id="path11"
       style="stroke-width:0.215388" />
  </g>
</svg>
